<?xml version="1.0" standalone="no"?>
<!DOCTYPE svg PUBLIC "-//W3C//DTD SVG 20010904//EN"
 "http://www.w3.org/TR/2001/REC-SVG-20010904/DTD/svg10.dtd">
<svg version="1.0" xmlns="http://www.w3.org/2000/svg"
 width="1378.000000pt" height="511.000000pt" viewBox="0 0 1378.000000 511.000000"
 preserveAspectRatio="xMidYMid meet">
<metadata>
Created by potrace 1.13, written by Peter Selinger 2001-2015
</metadata>
<g transform="translate(0.000000,511.000000) scale(0.100000,-0.100000)"
fill="#000000" stroke="none">
<path d="M5133 4084 c-61 -79 -74 -92 -107 -108 -50 -23 -112 -20 -183 10 -34
15 -68 24 -76 21 -8 -3 -23 -31 -33 -63 -37 -118 -116 -164 -246 -144 -38 6
-74 8 -79 5 -5 -4 -9 -21 -9 -40 0 -61 -21 -135 -48 -167 -33 -39 -95 -67
-147 -68 -86 -1 -86 -1 -79 -100 4 -48 4 -100 0 -114 -12 -48 -63 -93 -136
-121 -39 -15 -72 -31 -76 -36 -3 -5 7 -35 22 -66 60 -127 35 -216 -79 -290
-21 -13 -40 -30 -44 -39 -3 -8 12 -37 35 -67 54 -72 62 -89 62 -141 0 -59 -13
-91 -61 -148 -21 -26 -39 -53 -39 -62 0 -8 27 -33 59 -55 105 -71 124 -152 67
-276 -30 -66 -26 -77 32 -96 75 -24 111 -49 138 -94 24 -43 26 -52 23 -143
l-4 -96 81 -12 c128 -18 170 -62 189 -194 l11 -75 96 3 c73 3 103 0 126 -12
48 -25 80 -65 104 -128 11 -32 26 -62 33 -68 8 -6 34 0 85 21 120 51 188 30
264 -77 20 -30 43 -54 51 -54 8 0 44 23 80 50 62 47 70 50 124 50 47 0 66 -5
103 -30 24 -16 53 -39 63 -50 28 -31 50 -24 90 30 81 110 150 131 270 82 39
-16 75 -27 82 -25 7 3 21 33 33 68 15 46 32 74 60 99 45 41 76 48 185 44 l79
-3 8 50 c4 28 10 65 13 83 6 34 53 95 88 114 11 6 54 16 96 22 l76 12 -3 80
c-1 43 0 94 3 112 9 51 66 106 135 132 33 12 64 28 70 35 7 9 2 32 -20 83 -16
39 -30 82 -30 96 0 52 32 106 98 165 l65 58 -19 30 c-10 17 -32 49 -48 72 -55
79 -43 169 35 259 16 18 29 39 29 47 0 8 -28 35 -61 61 -65 50 -99 104 -99
159 0 17 12 57 26 90 40 93 40 94 -45 129 -54 23 -82 42 -105 70 -31 38 -31
39 -29 147 l2 108 -32 5 c-18 3 -51 7 -75 10 -96 10 -154 80 -168 204 -3 34
-10 65 -15 67 -4 3 -39 1 -77 -5 -127 -20 -200 22 -243 141 -12 33 -29 63 -36
66 -7 3 -41 -6 -74 -21 -117 -50 -201 -26 -273 78 -21 31 -44 56 -50 56 -6 0
-34 -19 -61 -41 -110 -92 -175 -92 -283 -3 -30 24 -58 44 -63 44 -4 0 -21 -16
-36 -36z m466 -340 c229 -43 429 -147 608 -318 290 -276 424 -678 358 -1078
-82 -500 -496 -912 -997 -992 -399 -64 -789 68 -1073 365 -206 215 -316 477
-331 789 -20 397 177 794 511 1033 179 127 358 192 615 221 59 7 221 -4 309
-20z"/>
<path d="M5204 3600 c-77 -11 -223 -59 -306 -101 -319 -161 -541 -484 -579
-841 -25 -237 39 -492 174 -693 220 -328 601 -507 986 -465 447 49 799 352
918 789 23 84 26 117 27 256 1 201 -23 311 -106 479 -137 280 -394 485 -708
563 -68 16 -323 25 -406 13z m-724 -1051 l0 -300 -27 3 -28 3 -3 298 -2 297
30 0 30 0 0 -301z m145 1 l0 -295 -27 -3 -28 -3 0 301 0 301 28 -3 27 -3 0
-295z m235 0 l0 -301 -72 3 -73 3 -3 298 -2 297 75 0 75 0 0 -300z m100 0 l0
-300 -30 0 -30 0 0 300 0 300 30 0 30 0 0 -300z m90 -1 l0 -300 -27 3 -28 3
-3 298 -2 297 30 0 30 0 0 -301z m240 0 l0 -300 -27 3 -28 3 -3 298 -2 297 30
0 30 0 0 -301z m200 1 l0 -300 -30 0 -30 0 0 300 0 300 30 0 30 0 0 -300z
m145 0 l0 -295 -28 -3 -27 -3 0 301 0 301 28 -3 27 -3 0 -295z m135 0 l0 -300
-30 0 -30 0 0 300 0 300 30 0 30 0 0 -300z m200 0 l0 -300 -30 0 -30 0 0 300
0 300 30 0 30 0 0 -300z m90 -1 l0 -300 -27 3 -28 3 -3 298 -2 297 30 0 30 0
0 -301z m90 1 l0 -300 -25 0 -25 0 0 300 0 300 25 0 25 0 0 -300z m198 3 l-3
-298 -52 -3 -53 -3 0 300 0 301 55 0 55 0 -2 -297z"/>
<path d="M7780 3640 c-36 -11 -99 -36 -140 -57 -233 -116 -360 -408 -290 -669
28 -102 52 -147 118 -217 88 -92 171 -136 362 -194 291 -87 380 -131 471 -231
59 -65 72 -89 93 -169 20 -77 20 -119 0 -196 -22 -87 -49 -133 -116 -204 -122
-126 -286 -171 -452 -122 -89 26 -144 58 -203 116 -51 52 -107 163 -116 231
-3 23 -12 54 -21 67 -15 24 -22 25 -106 25 -89 0 -91 0 -101 -27 -14 -37 20
-192 59 -271 81 -163 196 -260 382 -322 93 -32 95 -32 254 -27 135 3 170 8
215 26 220 90 332 206 412 431 27 75 29 284 4 362 -40 122 -75 182 -156 265
-44 46 -185 143 -207 143 -4 0 -19 6 -33 14 -15 7 -76 28 -135 45 -246 72
-348 116 -421 184 -54 50 -77 93 -94 174 -33 159 79 349 242 413 52 20 82 25
154 25 81 0 97 -4 159 -33 115 -54 198 -156 227 -277 6 -27 15 -57 19 -65 10
-20 81 -31 144 -22 l51 7 0 85 c0 79 -3 91 -42 170 -72 147 -172 238 -329 301
-72 29 -91 32 -209 35 -107 3 -141 0 -195 -16z"/>
<path d="M9999 3640 c-147 -32 -200 -50 -324 -110 -144 -71 -254 -156 -351
-272 -158 -189 -229 -351 -265 -603 -17 -120 -18 -152 -9 -225 6 -47 14 -105
17 -130 8 -69 70 -246 115 -332 132 -247 372 -449 643 -540 150 -51 190 -57
395 -54 168 2 206 5 274 24 179 52 307 114 432 213 130 103 289 296 282 344
-3 18 -11 20 -106 23 l-104 3 -92 -94 c-177 -181 -328 -267 -546 -312 -280
-57 -599 58 -826 298 -204 217 -288 464 -255 750 34 293 241 587 513 727 115
60 193 85 308 99 269 32 557 -64 756 -251 29 -27 64 -66 79 -88 32 -47 67 -60
156 -60 76 0 119 12 119 34 0 24 -95 157 -155 219 -152 154 -352 267 -570 323
-145 37 -353 43 -486 14z"/>
<path d="M11773 3608 c-4 -7 -9 -498 -11 -1090 -2 -1069 -2 -1078 18 -1098 26
-26 143 -29 178 -4 l22 15 0 493 c0 465 1 494 18 509 17 15 70 17 553 17 468
0 537 -2 557 -16 l22 -15 0 -493 c0 -432 2 -495 15 -506 9 -7 49 -15 90 -18
58 -4 80 -1 100 12 l25 16 0 1083 c0 829 -3 1086 -12 1095 -8 8 -46 12 -103
12 -57 0 -95 -4 -103 -12 -9 -9 -12 -128 -12 -474 l0 -463 -22 -15 c-20 -14
-89 -16 -553 -16 -464 0 -533 2 -553 16 l-22 15 0 463 c0 346 -3 465 -12 474
-17 17 -184 16 -195 0z"/>
<path d="M490 3590 c-15 -15 -20 -33 -20 -76 0 -103 -49 -94 515 -94 576 0
547 5 493 -88 -18 -32 -95 -160 -171 -287 -77 -126 -147 -243 -157 -260 -9
-16 -48 -82 -87 -145 -38 -63 -97 -160 -130 -215 -33 -55 -157 -262 -276 -460
l-217 -360 0 -81 c0 -45 3 -96 6 -113 l7 -32 96 3 96 3 6 75 c5 64 13 87 51
155 45 81 229 389 298 500 21 33 71 116 111 184 41 69 85 143 99 166 14 23 45
75 69 116 24 41 72 119 106 174 34 55 83 136 109 180 26 44 99 166 162 270 62
105 114 196 114 203 0 9 30 12 114 12 131 0 126 -4 126 100 0 58 -3 71 -19 80
-13 7 -266 10 -750 10 -718 0 -731 0 -751 -20z"/>
<path d="M2530 3590 c-20 -20 -20 -33 -20 -1090 0 -1057 0 -1070 20 -1090 19
-19 33 -20 548 -20 416 0 532 3 546 13 22 16 33 119 17 160 l-11 27 -424 0
c-389 0 -426 1 -445 17 l-21 18 -3 983 c-2 861 -4 984 -17 992 -8 5 -50 10
-92 10 -65 0 -81 -3 -98 -20z"/>
<path d="M1766 2005 c-82 -29 -136 -113 -122 -189 12 -63 56 -101 152 -132 99
-31 118 -51 86 -93 l-19 -26 -499 -2 c-274 -2 -509 -3 -520 -3 -14 0 -31 -15
-48 -41 -22 -32 -26 -50 -24 -87 l3 -47 550 3 c303 2 567 8 587 13 75 19 139
118 146 226 6 88 -8 106 -100 133 -40 12 -85 26 -100 32 -35 13 -45 44 -22 69
15 16 31 19 114 19 61 0 100 4 108 12 7 7 12 38 12 70 l0 58 -132 0 c-87 -1
-147 -6 -172 -15z"/>
</g>
</svg>
